<?xml version="1.0" encoding="UTF-8"?>
<svg width="110px" height="42px" viewBox="0 0 110 42" version="1.1" xmlns="http://www.w3.org/2000/svg" xmlns:xlink="http://www.w3.org/1999/xlink">
    <title>Logos/Maccabi group/מכבי</title>
    <g id="Desktop" stroke="none" stroke-width="1" fill="none" fill-rule="evenodd">
        <g id="Home-Page" transform="translate(-1710, -24)" fill="#0D47A1">
            <g id="Logos/Maccabi-group/מכבי" transform="translate(1710.4632, 24)">
                <path d="M40.452545,3.55271368e-15 C75.7083577,3.55271368e-15 106.437398,11.847095 109.088211,26.4673481 C110.128145,32.2175732 106.682088,37.5395901 99.9531011,41.8828452 C102.318442,39.3951592 103.521503,36.5404375 103.337985,33.3594619 C102.583523,19.5752344 79.0728512,5.62787988 43.878211,1.52931518 C37.9852499,0.836025634 32.3369791,0.530162597 27.0149623,0.591335205 C31.3174357,0.203908691 35.8034269,3.55271368e-15 40.452545,3.55271368e-15 Z M45.5298714,15.7825327 C50.3217257,15.7825327 55.4602247,17.923574 56.8671947,25.9371855 L57.0303216,26.8955564 C58.2333829,33.7468884 55.3582704,37.0909909 49.3225731,37.0909909 L43.9597745,37.0909909 C41.859515,37.0909909 41.3497433,35.684021 41.7983424,34.5421323 C41.9274846,34.2031341 42.631713,32.4328102 42.9195363,31.7098887 L42.9954298,31.5193054 C43.0252992,31.4443132 43.0421854,31.4019385 43.0421854,31.4019385 C43.0829671,31.2999841 43.1645306,31.2388115 43.2868758,31.2388115 L48.241857,31.2388115 C48.7720196,31.2388115 49.1390553,31.0552937 49.2817914,30.7290398 C49.4041366,30.4027859 49.3021822,29.9745776 48.9351466,29.5055876 C48.9257354,29.4899023 48.8651661,29.4076149 48.7694023,29.2795896 L48.6013563,29.0558562 C48.4109054,28.8030354 48.1592262,28.4707765 47.9001963,28.1294963 L47.6407116,27.787817 C47.1248235,27.1088762 46.6513692,26.487739 46.6513692,26.487739 C46.5698058,26.3857847 46.5494149,26.2838303 46.5901966,26.181876 C46.5901966,26.1614851 47.772867,23.2455908 47.7932579,23.1640273 C47.9767757,22.6950373 47.9563849,22.2668291 47.7116944,21.9405752 C47.467004,21.6143213 47.0387958,21.4308035 46.5086332,21.4308035 L40.4321542,21.4308035 C40.3505907,21.4308035 40.255977,21.391653 40.1900738,21.3237922 L40.146682,21.2676765 C40.1262911,21.2472856 38.2503312,18.7595996 37.9240773,18.3313913 C37.0676608,17.1895027 37.0676608,15.7825327 39.1679203,15.7825327 L45.5298714,15.7825327 Z M26.2197184,15.7825327 C30.6037552,15.7825327 33.5196495,18.0051374 34.7838834,21.1657222 C34.8246651,21.2880674 34.7634925,21.4104126 34.6207565,21.4104126 L30.6241461,21.4104126 C30.0939835,21.4104126 29.7269479,21.5939304 29.5842118,21.9201843 C29.4414757,22.2464382 29.4414757,22.5319104 29.8085113,23.0009004 C29.8900748,23.1028547 31.8272074,25.6721042 32.2146339,26.181876 C32.2418217,26.2090638 32.2599469,26.2453142 32.2690095,26.2785438 L32.2758065,26.324612 C32.2758065,26.3653938 32.2758065,26.4265664 32.2554156,26.4673481 C32.1126796,26.8139929 31.6640804,27.9354907 31.3582174,28.7307346 C31.1950904,29.138552 31.0727452,29.4648059 31.0523544,29.5055876 C30.8688365,29.9745776 30.8892274,30.4027859 31.1339178,30.7290398 C31.3786083,31.0552937 31.8068165,31.2388115 32.3369791,31.2388115 L35.9257721,31.2388115 C36.0277264,31.2388115 36.1500716,31.2999841 36.2112442,31.4019385 C36.2112442,31.4019385 38.4746307,34.3790053 38.5969759,34.5421323 C39.4533924,35.7248027 39.4533924,37.0909909 37.3531329,37.0909909 L21.3055189,37.0909909 C18.3896246,37.0909909 16.6971825,36.1326201 16.1670199,33.0739897 L16.0038929,32.1971824 C15.9019386,31.6670198 16.2485834,31.2592024 16.778746,31.2592024 L22.7124889,31.2592024 C25.6895558,31.2592024 25.7507284,29.607542 25.3633019,27.3645464 L24.9758754,25.1215508 C24.568058,22.8377734 23.4465602,21.4104126 20.5306659,21.4104126 L15.0251312,21.4104126 C14.5357504,21.4104126 14.0667604,21.0433769 13.9240243,20.5539961 L13.8424608,20.0238335 C13.3858127,17.4030702 14.0504081,15.864887 16.7962231,15.7857449 L17.0234364,15.7825327 L26.2197184,15.7825327 Z M75.1781952,15.7825327 C79.7049681,15.7825327 83.9462689,17.6177109 85.2308936,24.9176421 L85.8222288,28.2821355 C86.9029449,34.440178 83.7831419,36.9890366 79.093242,36.9890366 L78.2776073,36.9890366 C74.729596,36.9890366 73.1391082,35.9491023 72.5273822,32.4826545 L72.4662096,32.1564006 C72.3642552,31.6466289 72.7109,31.2184206 73.2410626,31.2184206 L74.4441239,31.2184206 C77.4619725,31.2184206 77.8290081,29.7502781 77.4211908,27.425719 L77.074546,25.2846777 C76.5851651,22.5523013 75.3005404,21.4104126 72.7516817,21.4104126 L71.7525291,21.4104126 C69.8153966,21.4104126 68.5307718,23.1028547 68.9997618,25.8352312 L70.4475135,34.0323606 C70.8757218,36.4996557 69.7746148,37.0502092 67.409274,37.0502092 L63.9020445,37.0502092 C63.3922728,37.0502092 62.9232828,36.6627827 62.8009376,36.1734018 L60.4763785,23.062073 C60.2724698,21.8794026 59.9054342,21.4104126 58.6208094,21.4104126 C57.8867381,21.4104126 57.3973573,21.0841587 57.2954029,20.5743869 C57.2342303,20.2073513 57.1934486,20.0442244 57.1934486,20.0442244 C56.7244586,17.3526296 57.4585299,15.8029236 60.3744242,15.8029236 L62.4542928,15.8029236 C65.0439332,15.7825327 66.6140301,15.7825327 67.3481014,18.2498279 C67.6335736,19.1878078 68.4492083,19.3509348 68.5103809,18.392564 C68.7674295,15.8616246 70.0215147,15.7849294 71.9565598,15.7826053 L75.1781952,15.7825327 Z M0.139796761,20.0238335 C-0.349584098,17.3322388 0.38448719,15.7825327 3.32077234,15.7825327 L3.32077234,15.7825327 L5.50259534,15.7825327 C8.96904309,15.7825327 10.53914,17.6177109 11.0693026,20.6763413 L11.9868917,25.8352312 L12.4966635,28.9550342 C12.5986178,29.4851968 12.2315822,29.8930141 11.7218104,29.8930141 L8.72435266,29.8930141 C6.21627576,29.8930141 4.85008753,28.975425 4.42187928,26.5081299 L4.3403158,25.9167947 L3.8101532,22.9193369 C3.62663538,21.8590117 3.40233582,21.4104126 2.21966541,21.4104126 L1.32246717,21.4104126 C0.833086311,21.4104126 0.364096321,21.0433769 0.221360237,20.5539961 L0.139796761,20.0238335 Z" id="Combined-Shape"></path>
            </g>
        </g>
    </g>
</svg>